<?xml version="1.0" encoding="UTF-8" standalone="no"?>
<!DOCTYPE svg PUBLIC "-//W3C//DTD SVG 1.0//EN" "http://www.w3.org/TR/2001/REC-SVG-20010904/DTD/svg10.dtd">
<!-- Generated by Microsoft Visio 11.0, SVG Export, v1.0 greenspring sbc1 front panel.svg Page-1 -->
<svg xmlns="http://www.w3.org/2000/svg" xmlns:v="http://schemas.microsoft.com/visio/2003/SVGExtensions/" width="11in"
		height="8.5in" viewBox="0 0 792 612" xml:space="preserve" color-interpolation-filters="sRGB" class="st18">
	<v:documentProperties v:langID="1033" v:viewMarkup="false"/>

	<style type="text/css">
	<![CDATA[
		.st1 {fill:#ffffff;stroke:#000000;stroke-linecap:round;stroke-linejoin:round;stroke-width:0.72}
		.st2 {fill:#404040;stroke:#000000;stroke-linecap:round;stroke-linejoin:round;stroke-width:0.24}
		.st3 {stroke:#404040;stroke-linecap:round;stroke-linejoin:round;stroke-width:0.72}
		.st4 {fill:none;stroke:none;stroke-linecap:round;stroke-linejoin:round;stroke-width:0.72}
		.st5 {fill:#000000;font-family:Arial;font-size:0.333344em}
		.st6 {stroke:#000000;stroke-linecap:round;stroke-linejoin:round;stroke-width:0.24}
		.st7 {stroke:#000000;stroke-linecap:round;stroke-linejoin:round;stroke-width:2.16}
		.st8 {fill:#000000;font-family:Arial;font-size:0.666664em;font-weight:bold}
		.st9 {fill:#ff0000;stroke:#000000;stroke-linecap:round;stroke-linejoin:round;stroke-width:0.72}
		.st10 {fill:#00b050;stroke:#000000;stroke-linecap:round;stroke-linejoin:round;stroke-width:0.72}
		.st11 {fill:#000000;font-family:Arial;font-size:0.333344em;font-weight:bold}
		.st12 {font-size:1em}
		.st13 {fill:#000000;stroke:#000000;stroke-linecap:round;stroke-linejoin:round;stroke-width:0.72}
		.st14 {fill:#000000;font-family:Arial;font-size:0.499992em;font-weight:bold}
		.st15 {fill:#bfbfbf;stroke:#000000;stroke-linecap:round;stroke-linejoin:round;stroke-width:1.2}
		.st16 {stroke:#00b050;stroke-linecap:round;stroke-linejoin:round;stroke-width:0.72}
		.st17 {stroke:#000000;stroke-linecap:round;stroke-linejoin:round;stroke-width:0.72}
		.st18 {fill:none;fill-rule:evenodd;font-size:12;overflow:visible;stroke-linecap:square;stroke-miterlimit:3}
	]]>
	</style>

	<g v:mID="0" v:index="1" v:groupContext="foregroundPage">
		<title>Page-1</title>
		<v:pageProperties v:drawingScale="1" v:pageScale="1" v:drawingUnits="19" v:shadowOffsetX="9" v:shadowOffsetY="-9"/>
		<v:layer v:name="Connector" v:index="0"/>
		<v:layer v:name="Electrical" v:index="1"/>
		<g id="shape8-1" v:mID="8" v:groupContext="shape" transform="translate(216,-380.813)">
			<title>Sheet.8</title>
			<rect x="0" y="558" width="438.75" height="54" class="st1"/>
		</g>
		<g id="shape1-3" v:mID="1" v:groupContext="shape" transform="translate(396,-411.75)">
			<title>Circle, ellipse</title>
			<v:userDefs>
				<v:ud v:nameU="visVersion" v:val="VT0(12):26"/>
			</v:userDefs>
			<path d="M0 610.31 A1.6875 1.6875 0 0 1 3.37 610.31 A1.6875 1.6875 0 1 1 0 610.31 Z" class="st2"/>
		</g>
		<g id="shape2-5" v:mID="2" v:groupContext="shape" transform="translate(405,-411.75)">
			<title>Circle, ellipse.2</title>
			<v:userDefs>
				<v:ud v:nameU="visVersion" v:val="VT0(12):26"/>
			</v:userDefs>
			<path d="M0 610.31 A1.6875 1.6875 0 0 1 3.37 610.31 A1.6875 1.6875 0 1 1 0 610.31 Z" class="st2"/>
		</g>
		<g id="shape3-7" v:mID="3" v:groupContext="shape" transform="translate(414,-411.75)">
			<title>Circle, ellipse.3</title>
			<v:userDefs>
				<v:ud v:nameU="visVersion" v:val="VT0(12):26"/>
			</v:userDefs>
			<path d="M0 610.31 A1.6875 1.6875 0 0 1 3.37 610.31 A1.6875 1.6875 0 1 1 0 610.31 Z" class="st2"/>
		</g>
		<g id="shape4-9" v:mID="4" v:groupContext="shape" transform="translate(423,-411.75)">
			<title>Circle, ellipse.4</title>
			<v:userDefs>
				<v:ud v:nameU="visVersion" v:val="VT0(12):26"/>
			</v:userDefs>
			<path d="M0 610.31 A1.6875 1.6875 0 0 1 3.37 610.31 A1.6875 1.6875 0 1 1 0 610.31 Z" class="st2"/>
		</g>
		<g id="shape5-11" v:mID="5" v:groupContext="shape" transform="translate(432,-411.75)">
			<title>Circle, ellipse.5</title>
			<v:userDefs>
				<v:ud v:nameU="visVersion" v:val="VT0(12):26"/>
			</v:userDefs>
			<path d="M0 610.31 A1.6875 1.6875 0 0 1 3.37 610.31 A1.6875 1.6875 0 1 1 0 610.31 Z" class="st2"/>
		</g>
		<g id="shape6-13" v:mID="6" v:groupContext="shape" transform="translate(441,-411.75)">
			<title>Circle, ellipse.6</title>
			<v:userDefs>
				<v:ud v:nameU="visVersion" v:val="VT0(12):26"/>
			</v:userDefs>
			<path d="M0 610.31 A1.6875 1.6875 0 0 1 3.37 610.31 A1.6875 1.6875 0 1 1 0 610.31 Z" class="st2"/>
		</g>
		<g id="shape7-15" v:mID="7" v:groupContext="shape" transform="translate(450,-411.75)">
			<title>Circle, ellipse.7</title>
			<v:userDefs>
				<v:ud v:nameU="visVersion" v:val="VT0(12):26"/>
			</v:userDefs>
			<path d="M0 610.31 A1.6875 1.6875 0 0 1 3.37 610.31 A1.6875 1.6875 0 1 1 0 610.31 Z" class="st2"/>
		</g>
		<g id="shape17-17" v:mID="17" v:groupContext="shape" transform="translate(396,-393.75)">
			<title>Circle, ellipse.17</title>
			<v:userDefs>
				<v:ud v:nameU="visVersion" v:val="VT0(12):26"/>
			</v:userDefs>
			<path d="M0 610.31 A1.6875 1.6875 0 0 1 3.37 610.31 A1.6875 1.6875 0 1 1 0 610.31 Z" class="st2"/>
		</g>
		<g id="shape18-19" v:mID="18" v:groupContext="shape" transform="translate(405,-393.75)">
			<title>Circle, ellipse.18</title>
			<v:userDefs>
				<v:ud v:nameU="visVersion" v:val="VT0(12):26"/>
			</v:userDefs>
			<path d="M0 610.31 A1.6875 1.6875 0 0 1 3.37 610.31 A1.6875 1.6875 0 1 1 0 610.31 Z" class="st2"/>
		</g>
		<g id="shape19-21" v:mID="19" v:groupContext="shape" transform="translate(414,-393.75)">
			<title>Circle, ellipse.19</title>
			<v:userDefs>
				<v:ud v:nameU="visVersion" v:val="VT0(12):26"/>
			</v:userDefs>
			<path d="M0 610.31 A1.6875 1.6875 0 0 1 3.37 610.31 A1.6875 1.6875 0 1 1 0 610.31 Z" class="st2"/>
		</g>
		<g id="shape20-23" v:mID="20" v:groupContext="shape" transform="translate(423,-393.75)">
			<title>Circle, ellipse.20</title>
			<v:userDefs>
				<v:ud v:nameU="visVersion" v:val="VT0(12):26"/>
			</v:userDefs>
			<path d="M0 610.31 A1.6875 1.6875 0 0 1 3.37 610.31 A1.6875 1.6875 0 1 1 0 610.31 Z" class="st2"/>
		</g>
		<g id="shape21-25" v:mID="21" v:groupContext="shape" transform="translate(432,-393.75)">
			<title>Circle, ellipse.21</title>
			<v:userDefs>
				<v:ud v:nameU="visVersion" v:val="VT0(12):26"/>
			</v:userDefs>
			<path d="M0 610.31 A1.6875 1.6875 0 0 1 3.37 610.31 A1.6875 1.6875 0 1 1 0 610.31 Z" class="st2"/>
		</g>
		<g id="shape22-27" v:mID="22" v:groupContext="shape" transform="translate(441,-393.75)">
			<title>Circle, ellipse.22</title>
			<v:userDefs>
				<v:ud v:nameU="visVersion" v:val="VT0(12):26"/>
			</v:userDefs>
			<path d="M0 610.31 A1.6875 1.6875 0 0 1 3.37 610.31 A1.6875 1.6875 0 1 1 0 610.31 Z" class="st2"/>
		</g>
		<g id="shape23-29" v:mID="23" v:groupContext="shape" transform="translate(450,-393.75)">
			<title>Circle, ellipse.23</title>
			<v:userDefs>
				<v:ud v:nameU="visVersion" v:val="VT0(12):26"/>
			</v:userDefs>
			<path d="M0 610.31 A1.6875 1.6875 0 0 1 3.37 610.31 A1.6875 1.6875 0 1 1 0 610.31 Z" class="st2"/>
		</g>
		<g id="shape24-31" v:mID="24" v:groupContext="shape" transform="translate(468,-411.75)">
			<title>Circle, ellipse.24</title>
			<v:userDefs>
				<v:ud v:nameU="visVersion" v:val="VT0(12):26"/>
			</v:userDefs>
			<path d="M0 610.31 A1.6875 1.6875 0 0 1 3.37 610.31 A1.6875 1.6875 0 1 1 0 610.31 Z" class="st2"/>
		</g>
		<g id="shape25-33" v:mID="25" v:groupContext="shape" transform="translate(477,-411.75)">
			<title>Circle, ellipse.25</title>
			<v:userDefs>
				<v:ud v:nameU="visVersion" v:val="VT0(12):26"/>
			</v:userDefs>
			<path d="M0 610.31 A1.6875 1.6875 0 0 1 3.37 610.31 A1.6875 1.6875 0 1 1 0 610.31 Z" class="st2"/>
		</g>
		<g id="shape26-35" v:mID="26" v:groupContext="shape" transform="translate(486,-411.75)">
			<title>Circle, ellipse.26</title>
			<v:userDefs>
				<v:ud v:nameU="visVersion" v:val="VT0(12):26"/>
			</v:userDefs>
			<path d="M0 610.31 A1.6875 1.6875 0 0 1 3.37 610.31 A1.6875 1.6875 0 1 1 0 610.31 Z" class="st2"/>
		</g>
		<g id="shape27-37" v:mID="27" v:groupContext="shape" transform="translate(495,-411.75)">
			<title>Circle, ellipse.27</title>
			<v:userDefs>
				<v:ud v:nameU="visVersion" v:val="VT0(12):26"/>
			</v:userDefs>
			<path d="M0 610.31 A1.6875 1.6875 0 0 1 3.37 610.31 A1.6875 1.6875 0 1 1 0 610.31 Z" class="st2"/>
		</g>
		<g id="shape28-39" v:mID="28" v:groupContext="shape" transform="translate(504,-411.75)">
			<title>Circle, ellipse.28</title>
			<v:userDefs>
				<v:ud v:nameU="visVersion" v:val="VT0(12):26"/>
			</v:userDefs>
			<path d="M0 610.31 A1.6875 1.6875 0 0 1 3.37 610.31 A1.6875 1.6875 0 1 1 0 610.31 Z" class="st2"/>
		</g>
		<g id="shape29-41" v:mID="29" v:groupContext="shape" transform="translate(513,-411.75)">
			<title>Circle, ellipse.29</title>
			<v:userDefs>
				<v:ud v:nameU="visVersion" v:val="VT0(12):26"/>
			</v:userDefs>
			<path d="M0 610.31 A1.6875 1.6875 0 0 1 3.37 610.31 A1.6875 1.6875 0 1 1 0 610.31 Z" class="st2"/>
		</g>
		<g id="shape30-43" v:mID="30" v:groupContext="shape" transform="translate(522,-411.75)">
			<title>Circle, ellipse.30</title>
			<v:userDefs>
				<v:ud v:nameU="visVersion" v:val="VT0(12):26"/>
			</v:userDefs>
			<path d="M0 610.31 A1.6875 1.6875 0 0 1 3.37 610.31 A1.6875 1.6875 0 1 1 0 610.31 Z" class="st2"/>
		</g>
		<g id="shape31-45" v:mID="31" v:groupContext="shape" transform="translate(468,-393.75)">
			<title>Circle, ellipse.31</title>
			<v:userDefs>
				<v:ud v:nameU="visVersion" v:val="VT0(12):26"/>
			</v:userDefs>
			<path d="M0 610.31 A1.6875 1.6875 0 0 1 3.37 610.31 A1.6875 1.6875 0 1 1 0 610.31 Z" class="st2"/>
		</g>
		<g id="shape32-47" v:mID="32" v:groupContext="shape" transform="translate(477,-393.75)">
			<title>Circle, ellipse.32</title>
			<v:userDefs>
				<v:ud v:nameU="visVersion" v:val="VT0(12):26"/>
			</v:userDefs>
			<path d="M0 610.31 A1.6875 1.6875 0 0 1 3.37 610.31 A1.6875 1.6875 0 1 1 0 610.31 Z" class="st2"/>
		</g>
		<g id="shape33-49" v:mID="33" v:groupContext="shape" transform="translate(486,-393.75)">
			<title>Circle, ellipse.33</title>
			<v:userDefs>
				<v:ud v:nameU="visVersion" v:val="VT0(12):26"/>
			</v:userDefs>
			<path d="M0 610.31 A1.6875 1.6875 0 0 1 3.37 610.31 A1.6875 1.6875 0 1 1 0 610.31 Z" class="st2"/>
		</g>
		<g id="shape34-51" v:mID="34" v:groupContext="shape" transform="translate(495,-393.75)">
			<title>Circle, ellipse.34</title>
			<v:userDefs>
				<v:ud v:nameU="visVersion" v:val="VT0(12):26"/>
			</v:userDefs>
			<path d="M0 610.31 A1.6875 1.6875 0 0 1 3.37 610.31 A1.6875 1.6875 0 1 1 0 610.31 Z" class="st2"/>
		</g>
		<g id="shape35-53" v:mID="35" v:groupContext="shape" transform="translate(504,-393.75)">
			<title>Circle, ellipse.35</title>
			<v:userDefs>
				<v:ud v:nameU="visVersion" v:val="VT0(12):26"/>
			</v:userDefs>
			<path d="M0 610.31 A1.6875 1.6875 0 0 1 3.37 610.31 A1.6875 1.6875 0 1 1 0 610.31 Z" class="st2"/>
		</g>
		<g id="shape36-55" v:mID="36" v:groupContext="shape" transform="translate(513,-393.75)">
			<title>Circle, ellipse.36</title>
			<v:userDefs>
				<v:ud v:nameU="visVersion" v:val="VT0(12):26"/>
			</v:userDefs>
			<path d="M0 610.31 A1.6875 1.6875 0 0 1 3.37 610.31 A1.6875 1.6875 0 1 1 0 610.31 Z" class="st2"/>
		</g>
		<g id="shape37-57" v:mID="37" v:groupContext="shape" transform="translate(522,-393.75)">
			<title>Circle, ellipse.37</title>
			<v:userDefs>
				<v:ud v:nameU="visVersion" v:val="VT0(12):26"/>
			</v:userDefs>
			<path d="M0 610.31 A1.6875 1.6875 0 0 1 3.37 610.31 A1.6875 1.6875 0 1 1 0 610.31 Z" class="st2"/>
		</g>
		<g id="shape10-59" v:mID="10" v:groupContext="shape" v:layerMember="0" transform="translate(442.687,-413.437)">
			<title>Dynamic connector.10</title>
			<path d="M0 612 L0 548.44 L106.31 548.44" class="st3"/>
		</g>
		<g id="shape9-62" v:mID="9" v:groupContext="shape" v:layerMember="0" transform="translate(433.687,-413.437)">
			<title>Dynamic connector</title>
			<path d="M0 612 L0 539.44 L115.31 539.44" class="st3"/>
		</g>
		<g id="shape11-65" v:mID="11" v:groupContext="shape" v:layerMember="0" transform="translate(424.687,-413.437)">
			<title>Dynamic connector.11</title>
			<path d="M0 612 L0 530.44 L124.31 530.44" class="st3"/>
		</g>
		<g id="shape12-68" v:mID="12" v:groupContext="shape" v:layerMember="0" transform="translate(415.687,-413.437)">
			<title>Dynamic connector.12</title>
			<path d="M0 612 L0 521.44 L133.31 521.44" class="st3"/>
		</g>
		<g id="shape14-71" v:mID="14" v:groupContext="shape" v:layerMember="0" transform="translate(514.687,-413.438)">
			<title>Dynamic connector.14</title>
			<path d="M0 612 L0 584.44 L34.31 584.44" class="st3"/>
		</g>
		<g id="shape15-74" v:mID="15" v:groupContext="shape" v:layerMember="0" transform="translate(505.687,-413.438)">
			<title>Dynamic connector.15</title>
			<path d="M0 612 L0 575.44 L43.31 575.44" class="st3"/>
		</g>
		<g id="shape38-77" v:mID="38" v:groupContext="shape" v:layerMember="0" transform="translate(496.687,-413.438)">
			<title>Dynamic connector.38</title>
			<path d="M0 612 L0 566.44 L52.31 566.44" class="st3"/>
		</g>
		<g id="shape39-80" v:mID="39" v:groupContext="shape" v:layerMember="0" transform="translate(487.687,-413.438)">
			<title>Dynamic connector.39</title>
			<path d="M0 612 L0 557.44 L61.31 557.44" class="st3"/>
		</g>
		<g id="shape40-83" v:mID="40" v:groupContext="shape" transform="translate(548.906,-483.188)">
			<title>Sheet.40</title>
			<desc>75C188 – 11 - rx</desc>
			<v:textBlock v:margins="rect(2,2,2,2)"/>
			<v:textRect cx="18.0469" cy="609.188" width="36.1" height="5.625"/>
			<rect x="0" y="606.375" width="36.0937" height="5.625" class="st4"/>
			<text x="2" y="610.39" class="st5" v:langID="1033"><v:paragraph/><v:tabList/>75C188 – 11 - rx</text>		</g>
		<g id="shape13-86" v:mID="13" v:groupContext="shape" transform="translate(548.906,-501.188)">
			<title>Sheet.13</title>
			<desc>75C188 – 8 - tx</desc>
			<v:textBlock v:margins="rect(2,2,2,2)"/>
			<v:textRect cx="18.0469" cy="609.188" width="36.1" height="5.625"/>
			<rect x="0" y="606.375" width="36.0937" height="5.625" class="st4"/>
			<text x="2" y="610.39" class="st5" v:langID="1033"><v:paragraph/><v:tabList/>75C188 – 8 - tx</text>		</g>
		<g id="shape41-89" v:mID="41" v:groupContext="shape" transform="translate(548.906,-492.188)">
			<title>Sheet.41</title>
			<desc>75C189 – 13 - tx</desc>
			<v:textBlock v:margins="rect(2,2,2,2)"/>
			<v:textRect cx="18.0469" cy="609.188" width="36.1" height="5.625"/>
			<rect x="0" y="606.375" width="36.0937" height="5.625" class="st4"/>
			<text x="2" y="610.39" class="st5" v:langID="1033"><v:paragraph/><v:tabList/>75C189 – 13 - tx</text>		</g>
		<g id="shape42-92" v:mID="42" v:groupContext="shape" transform="translate(548.906,-474.188)">
			<title>Sheet.42</title>
			<desc>75C189 – 4 - rx</desc>
			<v:textBlock v:margins="rect(2,2,2,2)"/>
			<v:textRect cx="18.0469" cy="609.188" width="36.1" height="5.625"/>
			<rect x="0" y="606.375" width="36.0937" height="5.625" class="st4"/>
			<text x="2" y="610.39" class="st5" v:langID="1033"><v:paragraph/><v:tabList/>75C189 – 4 - rx</text>		</g>
		<g id="shape43-95" v:mID="43" v:groupContext="shape" transform="translate(548.906,-438.188)">
			<title>Sheet.43</title>
			<desc>75C189 – 1- rx</desc>
			<v:textBlock v:margins="rect(2,2,2,2)"/>
			<v:textRect cx="18.0469" cy="609.188" width="36.1" height="5.625"/>
			<rect x="0" y="606.375" width="36.0937" height="5.625" class="st4"/>
			<text x="2" y="610.39" class="st5" v:langID="1033"><v:paragraph/><v:tabList/>75C189 – 1- rx</text>		</g>
		<g id="shape44-98" v:mID="44" v:groupContext="shape" transform="translate(548.906,-447.188)">
			<title>Sheet.44</title>
			<desc>75C188 - 6 - rx</desc>
			<v:textBlock v:margins="rect(2,2,2,2)"/>
			<v:textRect cx="18.0469" cy="609.188" width="36.1" height="5.625"/>
			<rect x="0" y="606.375" width="36.0937" height="5.625" class="st4"/>
			<text x="2" y="610.39" class="st5" v:langID="1033"><v:paragraph/><v:tabList/>75C188 - 6 - rx</text>		</g>
		<g id="shape45-101" v:mID="45" v:groupContext="shape" transform="translate(548.906,-456.188)">
			<title>Sheet.45</title>
			<desc>75C189 – 10 - tx</desc>
			<v:textBlock v:margins="rect(2,2,2,2)"/>
			<v:textRect cx="18.0469" cy="609.188" width="36.1" height="5.625"/>
			<rect x="0" y="606.375" width="36.0937" height="5.625" class="st4"/>
			<text x="2" y="610.39" class="st5" v:langID="1033"><v:paragraph/><v:tabList/>75C189 – 10 - tx</text>		</g>
		<g id="shape46-104" v:mID="46" v:groupContext="shape" transform="translate(548.906,-465.188)">
			<title>Sheet.46</title>
			<desc>75C188 – 3 – tx</desc>
			<v:textBlock v:margins="rect(2,2,2,2)"/>
			<v:textRect cx="18.0469" cy="609.188" width="36.1" height="5.625"/>
			<rect x="0" y="606.375" width="36.0937" height="5.625" class="st4"/>
			<text x="2" y="610.39" class="st5" v:langID="1033"><v:paragraph/><v:tabList/>75C188 – 3 – tx</text>		</g>
		<g id="shape47-107" v:mID="47" v:groupContext="shape" transform="translate(-3.9375,108) rotate(-90) scale(-1,1)">
			<title>Side brace</title>
			<desc>Ser1</desc>
			<v:userDefs>
				<v:ud v:nameU="TxtW" v:val="VT0(0.27777777777778):29"/>
				<v:ud v:nameU="TxtA" v:val="VT0(1.5707963267949):32"/>
				<v:ud v:nameU="TxtAState" v:val="VT0(0):26"/>
				<v:ud v:nameU="TxtWState" v:val="VT0(0):26"/>
				<v:ud v:nameU="MaxRadius" v:val="VT0(0.093749999999999):1"/>
				<v:ud v:nameU="PosCH1" v:prompt="Constrains X position of Control Handle #1" v:val="VT0(0):26"/>
				<v:ud v:nameU="PosCH2" v:prompt="Constrains Y position of Control Handle #2" v:val="VT0(0):26"/>
				<v:ud v:nameU="Scale" v:val="VT0(1):26"/>
				<v:ud v:nameU="AntiScale" v:val="VT0(1):26"/>
				<v:ud v:nameU="visVersion" v:val="VT0(12):26"/>
			</v:userDefs>
			<v:textBlock v:margins="rect(4,4,4,4)"/>
			<v:textRect cx="13.5" cy="628.75" width="20" height="12.8037" transform="rotate(90)"/>
			<path d="M0 584.44 L0 605.25 A6.74989 6.74989 -180 0 0 6.75 612 A6.74989 6.74989 0 0 1 13.5 618.75 A6.74989 6.74989 0
						 0 1 20.25 612 A6.74989 6.74989 -180 0 0 27 605.25 L27 584.44" class="st6"/>
			<text x="622.75" y="14.7" transform="rotate(-90) scale(-1,1)" class="st5" v:langID="1033"><v:paragraph/><v:tabList/>Ser1</text>		</g>
		<g id="shape48-111" v:mID="48" v:groupContext="shape" transform="translate(-22.5,117) rotate(-90) scale(-1,1)">
			<title>Side brace.48</title>
			<desc>Ser3</desc>
			<v:userDefs>
				<v:ud v:nameU="TxtW" v:val="VT0(0.27777777777778):29"/>
				<v:ud v:nameU="TxtA" v:val="VT0(1.5707963267949):32"/>
				<v:ud v:nameU="TxtAState" v:val="VT0(0):26"/>
				<v:ud v:nameU="TxtWState" v:val="VT0(0):26"/>
				<v:ud v:nameU="MaxRadius" v:val="VT0(0.03125):1"/>
				<v:ud v:nameU="PosCH1" v:prompt="Constrains X position of Control Handle #1" v:val="VT0(0):26"/>
				<v:ud v:nameU="PosCH2" v:prompt="Constrains Y position of Control Handle #2" v:val="VT0(0):26"/>
				<v:ud v:nameU="Scale" v:val="VT0(1):26"/>
				<v:ud v:nameU="AntiScale" v:val="VT0(1):26"/>
				<v:ud v:nameU="visVersion" v:val="VT0(12):26"/>
			</v:userDefs>
			<v:textBlock v:margins="rect(4,4,4,4)"/>
			<v:textRect cx="4.5" cy="624.25" width="20" height="12.8037" transform="rotate(90)"/>
			<path d="M0 605.25 L0 609.75 A2.24996 2.24996 -180 0 0 2.25 612 A2.24996 2.24996 0 0 1 4.5 614.25 A2.24996 2.24996 0
						 0 1 6.75 612 A2.24996 2.24996 -180 0 0 9 609.75 L9 605.25" class="st6"/>
			<text x="618.25" y="5.7" transform="rotate(-90) scale(-1,1)" class="st5" v:langID="1033"><v:paragraph/><v:tabList/>Ser3</text>		</g>
		<g id="shape49-115" v:mID="49" v:groupContext="shape" transform="translate(-3.9375,144) rotate(-90) scale(-1,1)">
			<title>Side brace.49</title>
			<desc>Ser0</desc>
			<v:userDefs>
				<v:ud v:nameU="TxtW" v:val="VT0(0.27777777777778):29"/>
				<v:ud v:nameU="TxtA" v:val="VT0(1.5707963267949):32"/>
				<v:ud v:nameU="TxtAState" v:val="VT0(0):26"/>
				<v:ud v:nameU="TxtWState" v:val="VT0(0):26"/>
				<v:ud v:nameU="MaxRadius" v:val="VT0(0.093749999999999):1"/>
				<v:ud v:nameU="PosCH1" v:prompt="Constrains X position of Control Handle #1" v:val="VT0(0):26"/>
				<v:ud v:nameU="PosCH2" v:prompt="Constrains Y position of Control Handle #2" v:val="VT0(0):26"/>
				<v:ud v:nameU="Scale" v:val="VT0(1):26"/>
				<v:ud v:nameU="AntiScale" v:val="VT0(1):26"/>
				<v:ud v:nameU="visVersion" v:val="VT0(12):26"/>
			</v:userDefs>
			<v:textBlock v:margins="rect(4,4,4,4)"/>
			<v:textRect cx="13.5" cy="628.75" width="20" height="12.8037" transform="rotate(90)"/>
			<path d="M0 584.44 L0 605.25 A6.74989 6.74989 -180 0 0 6.75 612 A6.74989 6.74989 0 0 1 13.5 618.75 A6.74989 6.74989 0
						 0 1 20.25 612 A6.74989 6.74989 -180 0 0 27 605.25 L27 584.44" class="st6"/>
			<text x="622.75" y="14.7" transform="rotate(-90) scale(-1,1)" class="st5" v:langID="1033"><v:paragraph/><v:tabList/>Ser0</text>		</g>
		<g id="shape50-119" v:mID="50" v:groupContext="shape" transform="translate(-22.5,153) rotate(-90) scale(-1,1)">
			<title>Side brace.50</title>
			<desc>Ser2</desc>
			<v:userDefs>
				<v:ud v:nameU="TxtW" v:val="VT0(0.27777777777778):29"/>
				<v:ud v:nameU="TxtA" v:val="VT0(1.5707963267949):32"/>
				<v:ud v:nameU="TxtAState" v:val="VT0(0):26"/>
				<v:ud v:nameU="TxtWState" v:val="VT0(0):26"/>
				<v:ud v:nameU="MaxRadius" v:val="VT0(0.03125):1"/>
				<v:ud v:nameU="PosCH1" v:prompt="Constrains X position of Control Handle #1" v:val="VT0(0):26"/>
				<v:ud v:nameU="PosCH2" v:prompt="Constrains Y position of Control Handle #2" v:val="VT0(0):26"/>
				<v:ud v:nameU="Scale" v:val="VT0(1):26"/>
				<v:ud v:nameU="AntiScale" v:val="VT0(1):26"/>
				<v:ud v:nameU="visVersion" v:val="VT0(12):26"/>
			</v:userDefs>
			<v:textBlock v:margins="rect(4,4,4,4)"/>
			<v:textRect cx="4.5" cy="624.25" width="20" height="12.8037" transform="rotate(90)"/>
			<path d="M0 605.25 L0 609.75 A2.24996 2.24996 -180 0 0 2.25 612 A2.24996 2.24996 0 0 1 4.5 614.25 A2.24996 2.24996 0
						 0 1 6.75 612 A2.24996 2.24996 -180 0 0 9 609.75 L9 605.25" class="st6"/>
			<text x="618.25" y="5.7" transform="rotate(-90) scale(-1,1)" class="st5" v:langID="1033"><v:paragraph/><v:tabList/>Ser2</text>		</g>
		<g id="shape16-123" v:mID="16" v:groupContext="shape" transform="translate(390.375,-387.563)">
			<title>Sheet.16</title>
			<path d="M24.82 578.25 L0 578.25 L0 612 L69.19 612 L69.19 578.25 L43.84 578.25" class="st7"/>
		</g>
		<g id="shape51-126" v:mID="51" v:groupContext="shape" transform="translate(462.375,-387.563)">
			<title>Sheet.51</title>
			<path d="M24.82 578.25 L0 578.25 L0 612 L69.19 612 L69.19 578.25 L43.84 578.25" class="st7"/>
		</g>
		<g id="shape52-129" v:mID="52" v:groupContext="shape" transform="translate(391.5,-401.625)">
			<title>Sheet.52</title>
			<desc>ja</desc>
			<v:textBlock v:margins="rect(2,2,2,2)"/>
			<v:textRect cx="33.75" cy="609.188" width="67.5" height="5.625"/>
			<rect x="0" y="606.375" width="67.5" height="5.625" class="st4"/>
			<text x="30.41" y="611.59" class="st8" v:langID="1033"><v:paragraph v:horizAlign="1"/><v:tabList/>ja</text>		</g>
		<g id="shape53-132" v:mID="53" v:groupContext="shape" transform="translate(462.375,-401.625)">
			<title>Sheet.53</title>
			<desc>jb</desc>
			<v:textBlock v:margins="rect(2,2,2,2)"/>
			<v:textRect cx="34.5938" cy="609.188" width="69.19" height="5.625"/>
			<rect x="0" y="606.375" width="69.1875" height="5.625" class="st4"/>
			<text x="31.04" y="611.59" class="st8" v:langID="1033"><v:paragraph v:horizAlign="1"/><v:tabList/>jb</text>		</g>
		<g id="shape54-135" v:mID="54" v:groupContext="shape" transform="translate(364.5,-412.875)">
			<title>Sheet.54</title>
			<rect x="0" y="603" width="22.5" height="9" class="st9"/>
		</g>
		<g id="shape55-137" v:mID="55" v:groupContext="shape" transform="translate(364.5,-396)">
			<title>Sheet.55</title>
			<rect x="0" y="603" width="22.5" height="9" class="st10"/>
		</g>
		<g id="shape56-139" v:mID="56" v:groupContext="shape" transform="translate(-223.875,224.438) rotate(-90)">
			<title>Sheet.56</title>
			<desc>r u n</desc>
			<v:textBlock v:margins="rect(2,2,2,2)"/>
			<v:textRect cx="3.9375" cy="599.625" width="7.88" height="24.75"/>
			<rect x="0" y="587.25" width="7.875" height="24.75" class="st4"/>
			<text x="3.16" y="596.03" class="st11" v:langID="1033"><v:paragraph v:horizAlign="1"/><v:tabList/>r<v:newlineChar/><tspan
						x="2.72" dy="1.2em" class="st12">u<v:newlineChar/></tspan><tspan x="2.72" dy="1.2em" class="st12">n</tspan></text>		</g>
		<g id="shape57-144" v:mID="57" v:groupContext="shape" transform="translate(-222.75,190.125) rotate(-90)">
			<title>Sheet.57</title>
			<desc>e x t</desc>
			<v:textBlock v:margins="rect(2,2,2,2)"/>
			<v:textRect cx="3.9375" cy="599.625" width="7.88" height="24.75"/>
			<rect x="0" y="587.25" width="7.875" height="24.75" class="st4"/>
			<text x="2.83" y="596.03" class="st11" v:langID="1033"><v:paragraph v:horizAlign="1"/><v:tabList/>e<v:newlineChar/><tspan
						x="2.83" dy="1.2em" class="st12">x<v:newlineChar/></tspan><tspan x="3.27" dy="1.2em" class="st12">t</tspan></text>		</g>
		<g id="shape58-149" v:mID="58" v:groupContext="shape" transform="translate(333,-393.75)">
			<title>Sheet.58</title>
			<ellipse cx="5.625" cy="606.375" rx="5.625" ry="5.625" class="st9"/>
		</g>
		<g id="shape59-151" v:mID="59" v:groupContext="shape" transform="translate(312.75,-393.75)">
			<title>Sheet.59</title>
			<ellipse cx="5.625" cy="606.375" rx="5.625" ry="5.625" class="st13"/>
		</g>
		<g id="shape60-153" v:mID="60" v:groupContext="shape" transform="translate(-284.906,212.625) rotate(-90)">
			<title>Sheet.60</title>
			<desc>abort</desc>
			<v:textBlock v:margins="rect(2,2,2,2)"/>
			<v:textRect cx="17.4375" cy="603.281" width="34.88" height="17.4375"/>
			<rect x="0" y="594.563" width="34.875" height="17.4375" class="st4"/>
			<text x="9.94" y="605.08" class="st14" v:langID="1033"><v:paragraph v:horizAlign="1"/><v:tabList/>abort</text>		</g>
		<g id="shape61-156" v:mID="61" v:groupContext="shape" transform="translate(-264.656,212.625) rotate(-90)">
			<title>Sheet.61</title>
			<desc>reset</desc>
			<v:textBlock v:margins="rect(2,2,2,2)"/>
			<v:textRect cx="17.4375" cy="603.281" width="34.88" height="17.4375"/>
			<rect x="0" y="594.563" width="34.875" height="17.4375" class="st4"/>
			<text x="10.27" y="605.08" class="st14" v:langID="1033"><v:paragraph v:horizAlign="1"/><v:tabList/>reset</text>		</g>
		<g id="shape63-159" v:mID="63" v:groupContext="shape" transform="translate(219.375,-385.125)">
			<title>Sheet.63</title>
			<rect x="0" y="567" width="37.125" height="45" class="st15"/>
		</g>
		<g id="shape64-161" v:mID="64" v:groupContext="shape" transform="translate(614.25,-385.125)">
			<title>Sheet.64</title>
			<rect x="0" y="567" width="37.125" height="45" class="st15"/>
		</g>
		<g id="shape65-163" v:mID="65" v:groupContext="shape" v:layerMember="0" transform="translate(463.219,-413.438)">
			<title>Dynamic connector.65</title>
			<path d="M6.47 612 L6.47 624.52 L11.53 624.52 L11.53 662.06" class="st16"/>
		</g>
		<g id="shape66-166" v:mID="66" v:groupContext="shape" v:layerMember="1" transform="translate(-130.43,275.906) rotate(-90)">
			<title>Ground</title>
			<v:userDefs>
				<v:ud v:nameU="visVersion" v:val="VT0(12):26"/>
				<v:ud v:nameU="visDescription" v:val="VT4(Represents a ground connection.)"/>
			</v:userDefs>
			<path d="M0 602.91 L0 607.45" class="st17"/>
			<path d="M2.27 600.63 L2.27 609.73" class="st17"/>
			<path d="M4.55 598.36 L4.55 612" class="st17"/>
			<path d="M27.28 605.18 L4.55 605.18" class="st17"/>
		</g>
		<g id="shape67-172" v:mID="67" v:groupContext="shape" v:layerMember="0" transform="translate(391.219,-411.75)">
			<title>Dynamic connector.67</title>
			<path d="M6.47 612 L6.47 622.83 L11.53 622.83 L11.53 660.38" class="st16"/>
		</g>
		<g id="shape68-175" v:mID="68" v:groupContext="shape" v:layerMember="1" transform="translate(-202.43,275.906) rotate(-90)">
			<title>Ground.68</title>
			<v:userDefs>
				<v:ud v:nameU="visVersion" v:val="VT0(12):26"/>
				<v:ud v:nameU="visDescription" v:val="VT4(Represents a ground connection.)"/>
			</v:userDefs>
			<path d="M0 602.91 L0 607.45" class="st17"/>
			<path d="M2.27 600.63 L2.27 609.73" class="st17"/>
			<path d="M4.55 598.36 L4.55 612" class="st17"/>
			<path d="M27.28 605.18 L4.55 605.18" class="st17"/>
		</g>
	</g>
</svg>
